# xmcd
#
# Track frame offsets: 
#        150
#        17731
#        35098
#        52678
#
# Disc length: 930 seconds
#
# Revision: 2
# Processed by: cddbd v1.5.2PL0 Copyright (c) Steve Scherf et al.
# Submitted via: ExactAudioCopy v1.3
#
DISCID=2703a004
DTITLE=Afterglow - Hey-day狂騒曲(カプリチオ)
DYEAR=2018
DGENRE=Anime
TTITLE0=Hey-day狂騒曲
TTITLE1=Scarlet Sky
TTITLE2=Hey-day狂騒曲 -instrumental-
TTITLE3=Scarlet Sky -instrumental-
EXTD=YEAR: 2004
EXTT0=
EXTT1=
EXTT2=
EXTT3=
PLAYORDER=
